<svg width="40" height="40" viewBox="0 0 40 40" fill="none" xmlns="http://www.w3.org/2000/svg">
<circle cx="20" cy="20" r="20" fill="#120FC2"/>
<rect x="8.74548" y="15" width="20.1291" height="1.67742" fill="white"/>
<rect x="10.0503" y="21.7412" width="4.10037" height="1.67742" rx="0.838711" fill="white"/>
<rect x="10.0503" y="21.7412" width="4.10037" height="1.67742" rx="0.838711" fill="white"/>
<rect x="9.95691" y="19.2266" width="6.70969" height="1.67742" rx="0.838711" fill="white"/>
<rect x="9.95691" y="19.2266" width="6.70969" height="1.67742" rx="0.838711" fill="white"/>
<path fill-rule="evenodd" clip-rule="evenodd" d="M20.6859 25.228C20.5625 25.7075 20.4968 26.2103 20.4968 26.7284C20.4968 27.2464 20.5625 27.7492 20.6859 28.2287H23.5764C23.5258 27.7581 23.4975 27.2581 23.4975 26.7284C23.4975 26.1986 23.5258 25.6986 23.5764 25.228H20.6859ZM21.2997 23.7276H23.8287C24.0575 22.7427 24.3782 21.931 24.7036 21.2877C24.7641 21.168 24.8248 21.0542 24.885 20.9462C23.358 21.3714 22.0763 22.3851 21.2997 23.7276ZM26.4983 21.1806C26.3577 21.3911 26.2006 21.6522 26.0425 21.9649C25.8057 22.433 25.5654 23.0191 25.3752 23.7276H27.6214C27.4311 23.0191 27.1908 22.433 26.9541 21.9649C26.7959 21.6522 26.6389 21.3911 26.4983 21.1806ZM27.91 25.228H25.0866C25.0302 25.6919 24.9979 26.1918 24.9979 26.7284C24.9979 27.2649 25.0302 27.7648 25.0866 28.2287H27.91C27.9663 27.7648 27.9986 27.2649 27.9986 26.7284C27.9986 26.1918 27.9663 25.6919 27.91 25.228ZM29.4201 28.2287C29.4707 27.7581 29.499 27.2581 29.499 26.7284C29.499 26.1986 29.4707 25.6986 29.4201 25.228H32.3107C32.4341 25.7075 32.4997 26.2103 32.4997 26.7284C32.4997 27.2464 32.4341 27.7492 32.3107 28.2287H29.4201ZM27.6214 29.7291H25.3752C25.5654 30.4376 25.8057 31.0238 26.0425 31.4919C26.2006 31.8045 26.3577 32.0656 26.4983 32.2761C26.6389 32.0656 26.7959 31.8045 26.9541 31.4919C27.1908 31.0238 27.4311 30.4376 27.6214 29.7291ZM24.885 32.5105C24.8248 32.4026 24.7641 32.2888 24.7036 32.169C24.3782 31.5258 24.0575 30.714 23.8287 29.7291H21.2997C22.0763 31.0716 23.358 32.0853 24.885 32.5105ZM28.1115 32.5105C28.1718 32.4026 28.2324 32.2888 28.293 32.169C28.6183 31.5258 28.939 30.714 29.1678 29.7291H31.6968C30.9202 31.0716 29.6385 32.0853 28.1115 32.5105ZM31.6968 23.7276H29.1678C28.939 22.7427 28.6183 21.931 28.293 21.2877C28.2324 21.168 28.1718 21.0542 28.1115 20.9462C29.6385 21.3714 30.9202 22.3851 31.6968 23.7276ZM18.9965 26.7284C18.9965 22.5852 22.3551 19.2266 26.4983 19.2266C30.6414 19.2266 34.0001 22.5852 34.0001 26.7284C34.0001 30.8715 30.6414 34.2302 26.4983 34.2302C22.3551 34.2302 18.9965 30.8715 18.9965 26.7284Z" fill="white"/>
<path d="M19.3863 25.8423C16.6972 25.8423 11.1439 25.8423 10.4432 25.8423C9.56734 25.8423 9.19856 25.8423 8.64538 25.4739C8.18439 25.0595 8 24.507 8 23.8162C8 23.1255 8 12.6267 8 11.936C8 11.2453 8.32269 10.6927 8.64538 10.4165C8.96806 10.1402 9.33685 10.002 10.1666 10.002C10.9964 10.002 26.5776 10.002 27.2691 10.002C27.9606 10.002 28.4216 9.95404 29.0208 10.3244C29.5279 10.7829 29.5279 10.9671 29.6201 11.6136C29.6201 12.1294 29.6201 17.9989 29.6201 20.8692" stroke="white" stroke-width="2"/>
</svg>
