<svg width="32" height="32" viewBox="0 0 32 32" fill="none" xmlns="http://www.w3.org/2000/svg">
<g id="ic:round-account-circle">
<path id="Vector" d="M15 3C7.272 3 1 9.272 1 17C1 24.728 7.272 31 15 31C22.728 31 29 24.728 29 17C29 9.272 22.728 3 15 3ZM15 8.6C17.702 8.6 19.9 10.798 19.9 13.5C19.9 16.202 17.702 18.4 15 18.4C12.298 18.4 10.1 16.202 10.1 13.5C10.1 10.798 12.298 8.6 15 8.6ZM15 28.2C12.158 28.2 8.798 27.052 6.404 24.168C8.85625 22.244 11.8831 21.1983 15 21.1983C18.1169 21.1983 21.1438 22.244 23.596 24.168C21.202 27.052 17.842 28.2 15 28.2Z" fill="#0362B0"/>
</g>
</svg>
