<svg width="30" height="30" viewBox="0 0 30 30" fill="none" xmlns="http://www.w3.org/2000/svg">
<g id="mingcute:right-fill" clip-path="url(#clip0_757_867)">
<g id="Group">
<path id="Vector" fill-rule="evenodd" clip-rule="evenodd" d="M20.075 13.6754C20.4261 14.0269 20.6233 14.5035 20.6233 15.0004C20.6233 15.4973 20.4261 15.9738 20.075 16.3254L13.005 23.3979C12.6532 23.7495 12.1762 23.9469 11.6789 23.9468C11.1816 23.9467 10.7047 23.749 10.3531 23.3973C10.0015 23.0455 9.80408 22.5685 9.8042 22.0712C9.80432 21.5739 10.002 21.097 10.3537 20.7454L16.0987 15.0004L10.3537 9.25538C10.012 8.90191 9.8228 8.42837 9.82684 7.93675C9.83088 7.44512 10.0278 6.97475 10.3753 6.62695C10.7228 6.27914 11.193 6.08173 11.6846 6.07723C12.1762 6.07272 12.6499 6.26149 13.0037 6.60288L20.0762 13.6741L20.075 13.6754Z" fill="white"/>
</g>
</g>
<defs>
<clipPath id="clip0_757_867">
<rect width="30" height="30" fill="white"/>
</clipPath>
</defs>
</svg>
