<svg width="32" height="15" viewBox="0 0 32 15" fill="none" xmlns="http://www.w3.org/2000/svg">
<g clip-path="url(#clip0_640_170)">
<path d="M27.6884 5.86272C27.0976 5.64363 26.3188 6.16067 25.9429 7.01948C25.5669 7.87829 25.737 8.75462 26.3278 8.97371C26.9186 9.19279 27.6974 8.67575 28.0733 7.81694C28.4582 6.95813 28.2792 6.0818 27.6884 5.86272ZM30.9467 9.39435C29.425 12.4703 26.5516 14.2668 24.3674 13.4605C22.0849 12.6105 21.4135 9.21908 22.8815 5.88024C24.3406 2.5414 27.3751 0.534594 29.6667 1.38464L30.1679 0.23664C27.4378 -0.779909 23.8304 1.62125 22.0849 5.58229C20.3483 9.55209 21.145 13.592 23.8572 14.5998C26.48 15.5725 29.9262 13.3904 31.7255 9.68354L30.9467 9.39435ZM23.3738 6.06427C22.0849 9 22.6756 11.9795 24.6807 12.7244C26.5874 13.4343 29.0938 11.8744 30.4365 9.20155L29.7562 8.94742C28.6552 11.0681 26.6411 12.3038 25.1104 11.7342C23.4723 11.1295 22.9979 8.69328 24.0452 6.30965C25.0925 3.92601 27.2677 2.48882 28.8968 3.09349L29.3265 2.10324C27.3304 1.35835 24.6539 3.12855 23.3738 6.06427ZM24.8419 6.6076C24.0721 8.36027 24.4212 10.1392 25.6206 10.5862C26.8201 11.0331 28.4135 9.97273 29.1833 8.22006C29.9531 6.46739 29.595 4.68843 28.3956 4.23273C27.1961 3.79456 25.6027 4.85493 24.8419 6.6076ZM28.5388 7.98345C28.0017 9.21908 26.8738 9.96397 26.0235 9.64849C25.182 9.333 24.9314 8.07984 25.4685 6.84421C26.0055 5.60858 27.1334 4.86369 27.9748 5.17917C28.8342 5.49465 29.0848 6.75658 28.5388 7.98345ZM5.3458 1.71765L1.21922 11.9357L0.870117 12.7945H8.76522L13.2409 1.71765H5.3458ZM6.64375 10.5686H5.39056V3.93478H6.6527V8.55307L10.1258 3.93478H11.6386L6.64375 10.5686ZM14.4941 1.71765L10.0184 12.7945H17.9225L22.3981 1.71765H14.4941ZM17.7971 5.02143L15.4698 10.5686H14.2077L16.535 5.02143H14.1181L14.5478 3.93478H20.5631L20.1335 5.02143H17.7971Z" fill="#0061AF"/>
</g>
<defs>
<clipPath id="clip0_640_170">
<rect width="30.8643" height="14.8364" fill="white" transform="translate(0.870117)"/>
</clipPath>
</defs>
</svg>
