<svg width="25" height="25" viewBox="0 0 25 25" fill="none" xmlns="http://www.w3.org/2000/svg">
<path fill-rule="evenodd" clip-rule="evenodd" d="M24.2945 12.2741C24.2945 11.4231 24.2165 10.6049 24.0718 9.81931H12.5381V14.4617H19.1288C18.8449 15.9619 17.9821 17.2329 16.6851 18.0839V21.0952H20.6429C22.9585 19.0059 24.2945 15.9291 24.2945 12.2741Z" fill="#4285F4"/>
<path fill-rule="evenodd" clip-rule="evenodd" d="M12.5433 24.0028C15.8498 24.0028 18.6219 22.9282 20.6481 21.0952L16.6903 18.0839C15.5937 18.804 14.191 19.2295 12.5433 19.2295C9.3537 19.2295 6.65396 17.1184 5.69096 14.2817H1.59961V17.3911C3.61467 21.3134 7.75613 24.0028 12.5433 24.0028Z" fill="#34A853"/>
<path fill-rule="evenodd" clip-rule="evenodd" d="M5.68786 14.2815C5.44293 13.5614 5.30377 12.7923 5.30377 12.0013C5.30377 11.2103 5.44293 10.4411 5.68786 9.72098V6.61151H1.5965C0.767095 8.23171 0.293945 10.0647 0.293945 12.0013C0.293945 13.9379 0.767095 15.7708 1.5965 17.391L5.68786 14.2815Z" fill="#FBBC05"/>
<path fill-rule="evenodd" clip-rule="evenodd" d="M12.5433 4.77331C14.3413 4.77331 15.9555 5.37884 17.2247 6.56807L20.7371 3.12583C18.6163 1.18924 15.8442 0 12.5433 0C7.75613 0 3.61467 2.68942 1.59961 6.61171L5.69096 9.72118C6.65396 6.88447 9.3537 4.77331 12.5433 4.77331Z" fill="#EA4335"/>
</svg>
