<svg width="24" height="24" viewBox="0 0 24 24" fill="none" xmlns="http://www.w3.org/2000/svg">
<path d="M22 12C22 17.5228 17.5228 22 12 22C6.47715 22 2 17.5228 2 12C2 6.47715 6.47715 2 12 2C17.5228 2 22 6.47715 22 12Z" fill="white"/>
<path fill-rule="evenodd" clip-rule="evenodd" d="M12 2.75C6.89137 2.75 2.75 6.89137 2.75 12C2.75 17.1086 6.89137 21.25 12 21.25C17.1086 21.25 21.25 17.1086 21.25 12C21.25 6.89137 17.1086 2.75 12 2.75ZM1.25 12C1.25 6.06294 6.06294 1.25 12 1.25C17.9371 1.25 22.75 6.06294 22.75 12C22.75 17.9371 17.9371 22.75 12 22.75C6.06294 22.75 1.25 17.9371 1.25 12Z" fill="#E992EC"/>
<path fill-rule="evenodd" clip-rule="evenodd" d="M2.25 9C2.25 8.58579 2.58579 8.25 3 8.25H21C21.4142 8.25 21.75 8.58579 21.75 9C21.75 9.41421 21.4142 9.75 21 9.75H3C2.58579 9.75 2.25 9.41421 2.25 9Z" fill="#E992EC"/>
<path fill-rule="evenodd" clip-rule="evenodd" d="M2.25 15C2.25 14.5858 2.58579 14.25 3 14.25H21C21.4142 14.25 21.75 14.5858 21.75 15C21.75 15.4142 21.4142 15.75 21 15.75H3C2.58579 15.75 2.25 15.4142 2.25 15Z" fill="#E992EC"/>
<path fill-rule="evenodd" clip-rule="evenodd" d="M10.6 2.66861C11.2749 1.68076 12.7253 1.68078 13.4001 2.66864C15.5999 5.88861 16.7499 8.91816 16.7499 12.0002C16.7499 15.0823 15.5999 18.1119 13.4001 21.3318C12.7253 22.3197 11.2749 22.3197 10.6 21.3319C8.40014 18.1119 7.24999 15.0823 7.25 12.0002C7.25001 8.91814 8.40018 5.88858 10.6 2.66861ZM12.1616 3.51477C12.0823 3.39872 11.9179 3.39872 11.8386 3.51477C9.74606 6.57764 8.75001 9.31522 8.75 12.0002C8.74999 14.6853 9.74602 17.4228 11.8386 20.4857C11.9178 20.6018 12.0823 20.6018 12.1616 20.4857C14.254 17.4228 15.2499 14.6853 15.2499 12.0002C15.2499 9.31521 14.254 6.57763 12.1616 3.51477Z" fill="#E992EC"/>
</svg>
