<svg width="24" height="24" viewBox="0 0 24 24" fill="none" xmlns="http://www.w3.org/2000/svg">
<path d="M2 19.9995V7.2272C2 6.83627 2.22779 6.48119 2.58313 6.31823L11.5831 2.19064C11.8478 2.06926 12.1522 2.06926 12.4169 2.19064L21.4169 6.31823C21.7722 6.48119 22 6.83627 22 7.2272V19.9995C22 20.5517 21.5523 20.9995 21 20.9995H3C2.44772 20.9995 2 20.5517 2 19.9995Z" fill="#FF7E82"/>
<path fill-rule="evenodd" clip-rule="evenodd" d="M11.2705 1.50892C11.7336 1.29651 12.2664 1.29651 12.7295 1.50892L21.7295 5.63651C22.3514 5.92169 22.75 6.54308 22.75 7.2272V19.9995C22.75 20.966 21.9665 21.7495 21 21.7495H3C2.0335 21.7495 1.25 20.966 1.25 19.9995V7.2272C1.25 6.54308 1.64864 5.92169 2.27048 5.63651L11.2705 1.50892ZM12.1042 2.87237C12.0381 2.84202 11.9619 2.84202 11.8958 2.87237L2.89578 6.99995C2.80695 7.0407 2.75 7.12946 2.75 7.2272V19.9995C2.75 20.1375 2.86193 20.2495 3 20.2495H21C21.1381 20.2495 21.25 20.1375 21.25 19.9995V7.2272C21.25 7.12947 21.1931 7.0407 21.1042 6.99995L12.1042 2.87237Z" fill="#FF7E82"/>
<path fill-rule="evenodd" clip-rule="evenodd" d="M2.37604 7.58405C2.60581 7.23941 3.07146 7.14628 3.4161 7.37604L11.8614 13.0062C11.9454 13.0622 12.0548 13.0622 12.1388 13.0062L20.5841 7.37604C20.9287 7.14628 21.3944 7.23941 21.6241 7.58405C21.8539 7.9287 21.7608 8.39435 21.4161 8.62412L12.9708 14.2543C12.383 14.6462 11.6172 14.6462 11.0294 14.2543L2.58405 8.62412C2.23941 8.39435 2.14628 7.9287 2.37604 7.58405Z" fill="white"/>
<path fill-rule="evenodd" clip-rule="evenodd" d="M15.2645 13.0335C15.1836 12.9637 15.0673 12.9529 14.9751 13.0067L12.8818 14.2278C12.3369 14.5456 11.6631 14.5456 11.1182 14.2278L9.02497 13.0067C8.93268 12.9529 8.81638 12.9637 8.73554 13.0335L3.49041 17.5663C3.17701 17.8372 2.70339 17.8027 2.43255 17.4893C2.16171 17.1759 2.19622 16.7023 2.50961 16.4314L7.75475 11.8986C8.32063 11.4096 9.13475 11.3342 9.78078 11.7111L11.874 12.9321C11.9519 12.9775 12.0481 12.9775 12.126 12.9321L14.2192 11.7111C14.8653 11.3342 15.6794 11.4096 16.2453 11.8986L21.4904 16.4314C21.8038 16.7023 21.8383 17.1759 21.5675 17.4893C21.2966 17.8027 20.823 17.8372 20.5096 17.5663L15.2645 13.0335Z" fill="white"/>
</svg>
