<svg width="24" height="24" viewBox="0 0 24 24" fill="none" xmlns="http://www.w3.org/2000/svg">
<path d="M22.6647 0H13.3177C12.5833 0 11.9824 0.600902 11.9824 1.33534V13.3534L15.9883 9.34736H22.6647C23.3991 9.34736 24 8.74646 24 8.01202V1.33534C24 0.600902 23.3991 0 22.6647 0ZM21.6365 16.3712L18.2449 15.984C17.8461 15.9371 17.4419 15.9813 17.0626 16.1131C16.6833 16.245 16.3388 16.461 16.055 16.7451L13.5981 19.2022C9.8075 17.2742 6.72644 14.1931 4.79858 10.4023L7.26886 7.9319C7.84304 7.35771 8.12345 6.55651 8.02998 5.74195L7.64274 2.3769C7.56704 1.72549 7.25443 1.12467 6.76444 0.68883C6.27445 0.252991 5.64129 0.012574 4.98552 0.0133534H2.67548C1.1666 0.0133534 -0.0885649 1.26857 0.00490514 2.7775C0.712607 14.1813 9.83261 23.2883 21.2226 23.996C22.7315 24.0895 23.9866 22.8343 23.9866 21.3253V19.0152C24 17.6665 22.9852 16.5315 21.6365 16.3712Z" fill="#1C73BA"/>
</svg>
