<svg width="22" height="22" viewBox="0 0 22 22" fill="none" xmlns="http://www.w3.org/2000/svg">
<g clip-path="url(#clip0_674_142)">
<path d="M13.5894 7.64339C13.7858 7.64339 13.9823 7.71706 14.1327 7.86748C14.9707 8.70548 15.4312 9.81669 15.4312 10.9985C15.4312 12.1834 14.9707 13.2976 14.1358 14.1326C13.3008 14.9675 12.1866 15.431 11.0017 15.431C9.81988 15.431 8.70867 14.9706 7.87067 14.1326C7.56984 13.8318 7.56984 13.3468 7.87067 13.0459L13.0461 7.87054C13.1965 7.72013 13.3929 7.64339 13.5894 7.64339ZM11.0017 13.8962C12.5979 13.8962 13.8963 12.5978 13.8963 11.0016C13.8963 10.492 13.7643 10.0009 13.5188 9.57112L9.56817 13.5187C10.001 13.7642 10.4921 13.8962 11.0017 13.8962Z" fill="#828282"/>
<path d="M17.5489 4.32815C17.7269 4.32815 17.9049 4.38954 18.0492 4.51233C19.142 5.4547 20.1243 6.60274 20.9684 7.92882C22.0489 9.62018 22.0489 12.3736 20.9684 14.065C19.7375 15.9989 18.2487 17.5245 16.5451 18.5896C14.8046 19.6793 12.9383 20.2319 11.0014 20.2319C8.74825 20.2319 6.52891 19.4553 4.58277 17.991C4.24511 17.7363 4.17758 17.2543 4.43236 16.9167C4.68714 16.579 5.16907 16.5115 5.50673 16.7663C7.18274 18.031 9.08284 18.7001 10.9983 18.7001C14.3043 18.7001 17.466 16.711 19.673 13.2423C20.4374 12.0483 20.4374 9.9517 19.673 8.75762C18.9087 7.56046 18.0277 6.526 17.0454 5.68185C16.7231 5.40559 16.6863 4.92059 16.9626 4.59828C17.1191 4.42024 17.334 4.32815 17.5489 4.32815Z" fill="#828282"/>
<path d="M11.0016 1.77118C12.3431 1.77118 13.6753 2.04745 14.9614 2.5877C15.3513 2.75346 15.5355 3.20162 15.3697 3.59147C15.2039 3.98131 14.7558 4.16549 14.3659 3.99973C13.267 3.53621 12.1343 3.30292 11.0016 3.30292C7.69564 3.30292 4.53393 5.29204 2.32687 8.76071C1.56253 9.9548 1.56253 12.0514 2.32687 13.2454C2.62769 13.7182 2.96535 14.1878 3.36133 14.682C3.62839 15.0135 3.57314 15.4955 3.24469 15.7595C2.91624 16.0234 2.43124 15.9713 2.16725 15.6428C1.73443 15.1056 1.36301 14.5899 1.03149 14.0681C-0.0459499 12.3767 -0.0459499 9.62635 1.03149 7.93499C2.26241 6.00112 3.75117 4.47552 5.45482 3.41036C7.19836 2.32371 9.06163 1.77118 11.0016 1.77118Z" fill="#828282"/>
<path d="M10.2956 6.63037C10.6578 6.63037 10.9801 6.88822 11.0507 7.25964C11.1274 7.67711 10.8512 8.07616 10.4337 8.1529C9.30406 8.36164 8.3709 9.2948 8.16523 10.4214C8.08849 10.8388 7.68944 11.1151 7.27197 11.0383C6.8545 10.9616 6.57824 10.5626 6.65498 10.1451C6.8146 9.28252 7.23207 8.49363 7.86748 7.85822C8.50289 7.22281 9.29485 6.80227 10.1543 6.64572C10.2035 6.63651 10.2495 6.63037 10.2956 6.63037Z" fill="#828282"/>
<path d="M21.2325 -2.47955e-05C21.429 -2.47955e-05 21.6254 0.0736456 21.7758 0.224057C22.0767 0.52488 22.0767 1.00988 21.7758 1.31071L14.1325 8.95407C13.8317 9.25489 13.3467 9.25489 13.0458 8.95407C12.745 8.65325 12.745 8.16825 13.0458 7.86742L20.6892 0.224057C20.8396 0.0767155 21.0361 -2.47955e-05 21.2325 -2.47955e-05Z" fill="#828282"/>
<path d="M8.41075 12.8218C8.6072 12.8218 8.80366 12.8955 8.95407 13.0459C9.25489 13.3467 9.25489 13.8317 8.95407 14.1325L1.3107 21.7759C1.00988 22.0767 0.524879 22.0767 0.224056 21.7759C-0.076767 21.4751 -0.076767 20.9901 0.224056 20.6893L7.86742 13.0459C8.01783 12.8955 8.21429 12.8218 8.41075 12.8218Z" fill="#828282"/>
</g>
<defs>
<clipPath id="clip0_674_142">
<rect width="22" height="22" fill="white" transform="matrix(-1 0 0 -1 22 22)"/>
</clipPath>
</defs>
</svg>
