<svg width="13" height="16" viewBox="0 0 13 16" fill="none" xmlns="http://www.w3.org/2000/svg">
<path d="M11.6163 8.14492C10.4381 5.08327 6.24336 4.91818 7.25641 0.468287C7.33145 0.138109 6.97876 -0.117028 6.6936 0.0555649C3.96964 1.66143 2.01108 4.88066 3.65447 9.09793C3.78954 9.44312 3.38432 9.76579 3.09166 9.54067C1.73343 8.51262 1.59086 7.03432 1.71092 5.97625C1.75595 5.58604 1.24567 5.39844 1.02805 5.72111C0.517779 6.50153 0 7.76221 0 9.66073C0.285153 13.863 3.83456 15.1537 5.11025 15.3188C6.93373 15.5514 8.90729 15.2137 10.3256 13.9155C11.8864 12.4672 12.4567 10.156 11.6163 8.14492ZM4.6525 11.9194C5.73309 11.6568 6.28838 10.8764 6.43847 10.186C6.6861 9.11294 5.71808 8.06237 6.37093 6.36646C6.61856 7.76972 8.82475 8.64769 8.82475 10.1785C8.88478 12.077 6.82868 13.7054 4.6525 11.9194Z" fill="#FF5247"/>
</svg>
