<svg width="20" height="24" viewBox="0 0 20 24" fill="none" xmlns="http://www.w3.org/2000/svg">
<path d="M16.5875 12.6566C16.5597 9.64986 19.1125 8.18708 19.2292 8.11898C17.7835 6.06381 15.5426 5.78301 14.7552 5.76062C12.8731 5.56751 11.0475 6.85863 10.0888 6.85863C9.1109 6.85863 7.63453 5.77927 6.04334 5.81099C3.99576 5.84178 2.08021 6.99764 1.02963 8.79253C-1.13852 12.4523 0.4785 17.8304 2.55575 20.7886C3.59485 22.2374 4.80905 23.8551 6.39832 23.7982C7.95315 23.7357 8.53394 22.8317 10.4103 22.8317C12.2693 22.8317 12.8147 23.7982 14.4356 23.7618C16.1043 23.7357 17.1548 22.3065 18.1576 20.8446C19.3584 19.1841 19.8406 17.5487 19.8598 17.4647C19.8205 17.4517 16.619 16.2604 16.5875 12.6566Z" fill="white"/>
<path d="M13.5256 3.8146C14.3619 2.79494 14.9341 1.40772 14.7752 -1.52588e-05C13.5649 0.0522269 12.0512 0.816269 11.1795 1.81353C10.4083 2.69232 9.71943 4.13271 9.8974 5.48728C11.257 5.58616 12.653 4.81839 13.5256 3.8146Z" fill="white"/>
</svg>
