<svg width="256" height="256" viewBox="0 0 256 256" fill="none" xmlns="http://www.w3.org/2000/svg">
<path d="M245.48 125.57C245.14 124.79 236.82 106.34 218.24 87.76C201 70.54 171.38 50 128 50C84.62 50 55 70.54 37.76 87.76C19.18 106.34 10.86 124.76 10.52 125.57C10.1781 126.338 10.0015 127.169 10.0015 128.01C10.0015 128.851 10.1781 129.682 10.52 130.45C10.86 131.22 19.18 149.67 37.76 168.25C55 185.47 84.62 206 128 206C171.38 206 201 185.47 218.24 168.25C236.82 149.67 245.14 131.25 245.48 130.45C245.822 129.682 245.999 128.851 245.999 128.01C245.999 127.169 245.822 126.338 245.48 125.57ZM128 194C96.62 194 69.22 182.58 46.55 160.07C37.0468 150.625 29.005 139.817 22.69 128C29.0032 116.185 37.0452 105.379 46.55 95.94C69.22 73.42 96.62 62 128 62C159.38 62 186.78 73.42 209.45 95.94C218.955 105.379 226.997 116.185 233.31 128C226.94 140.21 195 194 128 194ZM128 82C118.902 82 110.008 84.6979 102.444 89.7524C94.8791 94.8069 88.9832 101.991 85.5015 110.397C82.0199 118.802 81.109 128.051 82.8839 136.974C84.6588 145.897 89.0399 154.094 95.4731 160.527C101.906 166.96 110.103 171.341 119.026 173.116C127.949 174.891 137.198 173.98 145.603 170.498C154.009 167.017 161.193 161.121 166.248 153.556C171.302 145.992 174 137.098 174 128C173.984 115.805 169.133 104.114 160.509 95.4906C151.886 86.8674 140.195 82.0159 128 82ZM128 162C121.275 162 114.702 160.006 109.111 156.27C103.519 152.534 99.1615 147.224 96.5881 141.011C94.0147 134.799 93.3414 127.962 94.6533 121.367C95.9652 114.772 99.2034 108.713 103.958 103.958C108.713 99.2034 114.772 95.9652 121.367 94.6533C127.962 93.3414 134.799 94.0147 141.011 96.5881C147.224 99.1615 152.534 103.519 156.27 109.111C160.006 114.702 162 121.275 162 128C162 137.017 158.418 145.665 152.042 152.042C145.665 158.418 137.017 162 128 162Z" fill="black"/>
</svg>
