<svg width="24" height="18" viewBox="0 0 24 18" fill="none" xmlns="http://www.w3.org/2000/svg">
<path d="M11.875 0C6.47727 0 1.86761 3.69313 0 8.90625C1.86761 14.1194 6.47727 17.8125 11.875 17.8125C17.2727 17.8125 21.8824 14.1194 23.75 8.90625C21.8824 3.69313 17.2727 0 11.875 0ZM11.875 14.8438C8.89545 14.8438 6.47727 12.1838 6.47727 8.90625C6.47727 5.62875 8.89545 2.96875 11.875 2.96875C14.8545 2.96875 17.2727 5.62875 17.2727 8.90625C17.2727 12.1838 14.8545 14.8438 11.875 14.8438ZM11.875 5.34375C10.083 5.34375 8.63636 6.935 8.63636 8.90625C8.63636 10.8775 10.083 12.4688 11.875 12.4688C13.667 12.4688 15.1136 10.8775 15.1136 8.90625C15.1136 6.935 13.667 5.34375 11.875 5.34375Z" fill="black"/>
</svg>
