<svg width="226" height="57" viewBox="0 0 226 57" fill="none" xmlns="http://www.w3.org/2000/svg">
<path d="M54.0072 56.5H2.91931C1.308 56.5 0 55.2018 0 53.6026V2.89744C0 1.2982 1.308 0 2.91931 0H53.9883C55.5996 0 56.9076 1.2982 56.9076 2.89744V53.5837C56.9265 55.183 55.5996 56.5 54.0072 56.5Z" fill="white"/>
<path d="M36.8137 28.7862C35.8469 26.3779 34.3873 24.4212 32.8518 22.2576C34.0271 24.4589 34.5389 26.6978 34.6716 28.7862H36.8137Z" fill="url(#paint0_linear_685_104)"/>
<path d="M35.392 46.9048H26.8805C23.6768 50.1973 20.0751 53.0948 17.7434 54.8633H30.4443C32.7001 52.0788 34.2735 49.3507 35.392 46.9048Z" fill="url(#paint1_linear_685_104)"/>
<path d="M28.3212 29.4072C28.3402 21.2229 19.3737 14.5061 17.9141 13.2456C16.4544 11.985 16.7767 11.1195 17.6487 10.5927C19.3927 9.20045 19.3168 7.41307 18.7102 6.62286C18.1036 5.83265 16.17 5.56925 15.2412 6.09606C14.3123 6.56642 11.6963 7.54477 8.03769 6.62286C5.42168 5.96435 3.69664 3.42439 2.90046 2.01331C2.1422 2.48367 1.63037 3.31151 1.63037 4.27105V52.2293C1.63037 53.3017 2.25594 54.2048 3.16585 54.6375C24.6247 44.948 28.3022 34.9763 28.3212 29.4072Z" fill="url(#paint2_linear_685_104)"/>
<path d="M52.6235 1.61816H33.1362C29.1742 3.27384 27.108 6.81097 26.4635 8.20325C24.4351 12.3424 30.7287 17.2718 32.34 18.5324C38.7473 23.4995 40.6809 25.1551 43.0125 30.9876C46.1404 39.5859 41.1358 49.5952 37.8184 54.8633H52.6235C54.1021 54.8633 55.2964 53.6779 55.2964 52.2104V4.27101C55.2774 2.80348 54.0832 1.61816 52.6235 1.61816ZM41.0221 20.3951C40.6998 20.3951 40.5103 20.0376 40.6619 19.7742L42.9177 15.8419C43.0694 15.5597 43.4675 15.5597 43.6381 15.8419L45.8939 19.7742C46.0456 20.0564 45.856 20.3951 45.5337 20.3951H41.0221ZM51.979 52.455H43.1831C42.5576 52.455 42.1784 51.8153 42.4817 51.2885L46.8797 43.9508C47.183 43.424 47.9602 43.424 48.2824 43.9508L52.6804 51.2885C53.0026 51.7965 52.6045 52.455 51.979 52.455Z" fill="url(#paint3_linear_685_104)"/>
<path d="M34.3115 33.9038C33.9703 35.6724 33.4775 37.1399 33.1362 38.1371C32.8329 38.9273 32.4349 39.7175 31.9609 40.5265H37.5152C37.7237 39.567 37.8564 38.758 37.9323 38.1371C38.0839 36.5567 38.0839 35.1644 37.9891 33.9038H34.3115Z" fill="url(#paint4_linear_685_104)"/>
<path d="M75.3145 31.3827C75.7884 31.3827 76.2054 31.3451 76.5656 31.2698C76.9258 31.1945 77.267 31.0817 77.5893 30.9499V28.7298H76.1296C75.9211 28.7298 75.7505 28.6734 75.6178 28.5605C75.5041 28.4476 75.4282 28.2971 75.4282 28.1278V26.2651H80.6602V32.4175C80.2811 32.6997 79.883 32.9255 79.4849 33.1324C79.0868 33.3206 78.6508 33.4899 78.1769 33.6216C77.722 33.7533 77.2291 33.8474 76.6983 33.9038C76.1675 33.9603 75.6178 33.9979 75.0112 33.9979C73.9307 33.9979 72.9449 33.8098 72.0161 33.4335C71.1061 33.0572 70.31 32.5304 69.6465 31.8719C68.983 31.2134 68.4522 30.4231 68.0731 29.5012C67.694 28.5981 67.5044 27.601 67.5044 26.5285C67.5044 25.4373 67.694 24.4401 68.0541 23.537C68.4143 22.6339 68.9451 21.8437 69.6086 21.1852C70.291 20.5267 71.1061 20.0187 72.054 19.6424C73.0208 19.2661 74.0823 19.0968 75.2766 19.0968C75.8832 19.0968 76.4708 19.1532 77.0016 19.2473C77.5324 19.3414 78.0442 19.4919 78.4992 19.6612C78.9542 19.8306 79.3712 20.0375 79.7503 20.2821C80.1295 20.5267 80.4707 20.7901 80.755 21.0723L79.7693 22.5587C79.6745 22.6904 79.5608 22.8033 79.4281 22.8973C79.2954 22.9726 79.1627 23.0102 78.9921 23.0102C78.7835 23.0102 78.575 22.935 78.3665 22.8033C78.1011 22.6339 77.8357 22.5022 77.6082 22.3893C77.3618 22.2765 77.1343 22.1824 76.8689 22.1071C76.6225 22.0319 76.3571 21.9754 76.0728 21.9378C75.7884 21.9002 75.4851 21.8814 75.1439 21.8814C74.4994 21.8814 73.9307 21.9942 73.4188 22.22C72.907 22.4458 72.471 22.7656 72.1108 23.1607C71.7507 23.5747 71.4663 24.0638 71.2767 24.6283C71.0872 25.1927 70.9924 25.8324 70.9924 26.5285C70.9924 27.2999 71.1061 27.9961 71.3147 28.5981C71.5232 29.2002 71.8265 29.7082 72.2056 30.1221C72.5847 30.536 73.0397 30.8559 73.5515 31.0628C74.1202 31.2886 74.6889 31.3827 75.3145 31.3827Z" fill="#336FE4"/>
<path d="M86.48 33.8286H83.0488V19.2285H86.48V33.8286Z" fill="#336FE4"/>
<path d="M102.896 33.8286H100.261C99.9579 33.8286 99.7304 33.7533 99.5219 33.6216C99.3324 33.4899 99.1997 33.3018 99.1238 33.0948L98.2518 30.5549H92.6596L91.7876 33.0948C91.7118 33.283 91.5981 33.4523 91.3896 33.6028C91.2 33.7533 90.9536 33.8286 90.6692 33.8286H87.9963L93.6833 19.2285H97.1713L102.896 33.8286ZM93.4558 28.2595H97.4746L96.1287 24.2708C96.0339 24.0262 95.9391 23.7252 95.8254 23.3677C95.7117 23.029 95.5979 22.6528 95.4842 22.2577C95.3704 22.6716 95.2567 23.0479 95.143 23.3865C95.0292 23.7252 94.9155 24.0262 94.8207 24.2896L93.4558 28.2595Z" fill="#336FE4"/>
<path d="M118.005 26.5284C118.005 27.5821 117.815 28.5604 117.455 29.4823C117.095 30.3854 116.564 31.1756 115.901 31.853C115.237 32.5303 114.441 33.0571 113.493 33.4334C112.545 33.8097 111.522 33.9978 110.365 33.9978C109.209 33.9978 108.185 33.8097 107.237 33.4334C106.29 33.0571 105.493 32.5303 104.811 31.853C104.147 31.1756 103.617 30.3854 103.257 29.4823C102.896 28.5792 102.707 27.6009 102.707 26.5284C102.707 25.4748 102.896 24.4965 103.257 23.5746C103.617 22.6715 104.147 21.8813 104.811 21.2039C105.474 20.5454 106.29 20.0186 107.237 19.6235C108.185 19.2472 109.228 19.0591 110.365 19.0591C111.503 19.0591 112.545 19.2472 113.493 19.6423C114.441 20.0186 115.237 20.5454 115.901 21.2228C116.564 21.8813 117.076 22.6715 117.455 23.5934C117.815 24.4965 118.005 25.4748 118.005 26.5284ZM114.498 26.5284C114.498 25.8135 114.403 25.155 114.213 24.5717C114.024 23.9885 113.758 23.4993 113.398 23.1042C113.038 22.7091 112.621 22.3893 112.109 22.1823C111.597 21.9753 111.01 21.8624 110.365 21.8624C109.702 21.8624 109.114 21.9753 108.602 22.1823C108.09 22.3893 107.654 22.7091 107.294 23.1042C106.934 23.4993 106.669 23.9885 106.479 24.5717C106.29 25.155 106.195 25.7947 106.195 26.5284C106.195 27.2622 106.29 27.9019 106.479 28.4852C106.669 29.0684 106.934 29.5576 107.294 29.9527C107.654 30.3478 108.09 30.6676 108.602 30.8746C109.114 31.0816 109.702 31.1944 110.365 31.1944C111.01 31.1944 111.597 31.0816 112.109 30.8746C112.621 30.6676 113.057 30.3666 113.398 29.9527C113.74 29.5388 114.024 29.0684 114.213 28.4852C114.403 27.9019 114.498 27.2622 114.498 26.5284Z" fill="#336FE4"/>
<path d="M134.212 19.2474V21.9379H130.08V33.8475H126.668V21.9379H122.535V19.2474H134.212Z" fill="#336FE4"/>
<path d="M148.449 33.8286H145.018V27.6574H139.046V33.8286H135.615V19.2285H139.046V25.3244H145.018V19.2285H148.449V33.8286Z" fill="#336FE4"/>
<path d="M165.396 26.5285C165.396 27.5822 165.207 28.5605 164.846 29.4824C164.486 30.3855 163.955 31.1757 163.292 31.8531C162.628 32.5304 161.832 33.0572 160.884 33.4335C159.937 33.8098 158.913 33.9979 157.757 33.9979C156.6 33.9979 155.577 33.8098 154.629 33.4335C153.681 33.0572 152.885 32.5304 152.202 31.8531C151.539 31.1757 151.008 30.3855 150.648 29.4824C150.288 28.5793 150.098 27.601 150.098 26.5285C150.098 25.4749 150.288 24.4966 150.648 23.5747C151.008 22.6716 151.539 21.8814 152.202 21.204C152.866 20.5455 153.681 20.0187 154.629 19.6236C155.577 19.2473 156.619 19.0592 157.757 19.0592C158.894 19.0592 159.937 19.2473 160.884 19.6424C161.832 20.0187 162.628 20.5455 163.292 21.2229C163.955 21.8814 164.467 22.6716 164.846 23.5935C165.207 24.4966 165.396 25.4749 165.396 26.5285ZM161.908 26.5285C161.908 25.8136 161.813 25.1551 161.624 24.5718C161.434 23.9886 161.169 23.4994 160.809 23.1043C160.448 22.7092 160.031 22.3894 159.52 22.1824C159.008 21.9754 158.42 21.8625 157.776 21.8625C157.112 21.8625 156.524 21.9754 156.013 22.1824C155.501 22.3894 155.065 22.7092 154.705 23.1043C154.344 23.4994 154.079 23.9886 153.889 24.5718C153.7 25.1551 153.605 25.7948 153.605 26.5285C153.605 27.2623 153.7 27.902 153.889 28.4853C154.079 29.0685 154.344 29.5577 154.705 29.9528C155.065 30.3479 155.501 30.6677 156.013 30.8747C156.524 31.0817 157.112 31.1945 157.776 31.1945C158.42 31.1945 159.008 31.0817 159.52 30.8747C160.031 30.6677 160.467 30.3667 160.809 29.9528C161.15 29.5389 161.434 29.0685 161.624 28.4853C161.813 27.902 161.908 27.2623 161.908 26.5285ZM161.813 18.2878H159.444C159.33 18.2878 159.197 18.269 159.046 18.2313C158.913 18.1937 158.78 18.1561 158.685 18.0996L157.946 17.6481C157.908 17.6293 157.889 17.6105 157.851 17.5917C157.832 17.5728 157.795 17.554 157.757 17.5352C157.719 17.554 157.7 17.5728 157.662 17.5917C157.643 17.6105 157.605 17.6293 157.567 17.6481L156.828 18.0996C156.733 18.1561 156.619 18.1937 156.468 18.2313C156.335 18.269 156.202 18.2878 156.069 18.2878H153.738L156.202 16.0112H159.349L161.813 18.2878Z" fill="#336FE4"/>
<path d="M169.187 19.2663C169.282 19.2851 169.377 19.3039 169.453 19.3415C169.528 19.3791 169.604 19.4356 169.68 19.492C169.756 19.5673 169.832 19.6425 169.927 19.7554L176.903 28.523C176.884 28.2408 176.865 27.9774 176.846 27.714C176.827 27.4506 176.827 27.206 176.827 26.9614V19.2474H179.841V33.8475H178.059C177.794 33.8475 177.566 33.8099 177.395 33.7346C177.206 33.6594 177.035 33.5088 176.865 33.3019L169.927 24.6096C169.946 24.8542 169.964 25.1176 169.983 25.3622C170.002 25.6067 170.002 25.8325 170.002 26.0395V33.8663H166.988V19.2663H168.789C168.979 19.2474 169.092 19.2474 169.187 19.2663Z" fill="#336FE4"/>
<path d="M189.206 31.3827C189.68 31.3827 190.097 31.3451 190.457 31.2698C190.817 31.1945 191.158 31.0817 191.48 30.9499V28.7298H190.021C189.812 28.7298 189.642 28.6734 189.509 28.5605C189.395 28.4476 189.319 28.2971 189.319 28.1278V26.2651H194.551V32.4175C194.172 32.6997 193.774 32.9255 193.376 33.1324C192.978 33.3206 192.542 33.4899 192.068 33.6216C191.613 33.7533 191.12 33.8474 190.589 33.9038C190.059 33.9603 189.509 33.9979 188.902 33.9979C187.822 33.9979 186.836 33.8098 185.907 33.4335C184.997 33.0572 184.201 32.5304 183.538 31.8719C182.874 31.2134 182.343 30.4231 181.964 29.5012C181.585 28.5981 181.396 27.601 181.396 26.5285C181.396 25.4373 181.585 24.4401 181.945 23.537C182.305 22.6339 182.836 21.8437 183.5 21.1852C184.182 20.5267 184.997 20.0187 185.945 19.6424C186.912 19.2661 187.973 19.0968 189.168 19.0968C189.774 19.0968 190.362 19.1532 190.893 19.2473C191.424 19.3414 191.935 19.4919 192.39 19.6612C192.845 19.8306 193.262 20.0375 193.641 20.2821C194.021 20.5267 194.362 20.7901 194.646 21.0723L193.66 22.5587C193.566 22.6904 193.452 22.8033 193.319 22.8973C193.186 22.9726 193.054 23.0102 192.883 23.0102C192.675 23.0102 192.466 22.935 192.258 22.8033C191.992 22.6339 191.727 22.5022 191.499 22.3893C191.253 22.2765 191.025 22.1824 190.76 22.1071C190.514 22.0319 190.248 21.9754 189.964 21.9378C189.68 21.9002 189.376 21.8814 189.035 21.8814C188.39 21.8814 187.822 21.9942 187.31 22.22C186.798 22.4458 186.362 22.7656 186.002 23.1607C185.642 23.5747 185.357 24.0638 185.168 24.6283C184.978 25.1927 184.884 25.8324 184.884 26.5285C184.884 27.2999 184.997 27.9961 185.206 28.5981C185.414 29.2002 185.718 29.7082 186.097 30.1221C186.476 30.536 186.931 30.8559 187.443 31.0628C188.011 31.2886 188.599 31.3827 189.206 31.3827Z" fill="#336FE4"/>
<path d="M208.75 22.2012C208.655 22.3705 208.541 22.4834 208.427 22.5587C208.314 22.6339 208.181 22.6716 207.991 22.6716C207.84 22.6716 207.669 22.6151 207.499 22.5211C207.328 22.427 207.119 22.3141 206.892 22.2012C206.664 22.0883 206.418 21.9754 206.115 21.8814C205.83 21.7873 205.489 21.7308 205.129 21.7308C204.484 21.7308 204.011 21.8626 203.707 22.1448C203.404 22.427 203.233 22.7845 203.233 23.236C203.233 23.537 203.328 23.7816 203.518 23.9698C203.707 24.1579 203.954 24.3273 204.257 24.4778C204.56 24.6095 204.92 24.7412 205.3 24.8541C205.698 24.9669 206.096 25.0986 206.513 25.2492C206.93 25.3997 207.328 25.569 207.726 25.7572C208.124 25.9453 208.465 26.1899 208.769 26.4909C209.072 26.792 209.318 27.1494 209.508 27.5822C209.697 28.0149 209.792 28.5229 209.792 29.1438C209.792 29.8211 209.679 30.442 209.432 31.044C209.205 31.6273 208.863 32.1353 208.408 32.5868C207.953 33.0196 207.404 33.377 206.759 33.6216C206.115 33.8662 205.356 33.9979 204.522 33.9979C204.067 33.9979 203.593 33.9603 203.12 33.8662C202.646 33.7721 202.191 33.6404 201.736 33.4711C201.3 33.3018 200.883 33.0948 200.485 32.869C200.087 32.6433 199.745 32.3799 199.461 32.0788L200.466 30.4984C200.541 30.3855 200.636 30.2726 200.788 30.2162C200.921 30.1409 201.072 30.1033 201.224 30.1033C201.432 30.1033 201.622 30.1598 201.831 30.2915C202.039 30.4232 202.267 30.5549 202.532 30.7054C202.797 30.8559 203.082 31.0064 203.423 31.1193C203.764 31.251 204.162 31.3074 204.617 31.3074C205.243 31.3074 205.717 31.1757 206.058 30.8935C206.399 30.6301 206.57 30.1974 206.57 29.6141C206.57 29.2755 206.475 28.9933 206.285 28.7863C206.096 28.5793 205.849 28.3912 205.546 28.2595C205.243 28.1278 204.883 27.9961 204.503 27.8832C204.105 27.7703 203.707 27.6574 203.309 27.5257C202.892 27.394 202.494 27.2435 202.115 27.0365C201.736 26.8296 201.376 26.6038 201.072 26.284C200.769 25.9641 200.523 25.5878 200.333 25.1175C200.143 24.6471 200.049 24.0827 200.049 23.4053C200.049 22.8597 200.162 22.3329 200.39 21.8061C200.617 21.2793 200.94 20.8278 201.376 20.4138C201.812 19.9999 202.342 19.6801 202.968 19.4355C203.593 19.1909 204.314 19.078 205.11 19.078C205.565 19.078 206.001 19.1156 206.418 19.1909C206.854 19.2661 207.252 19.3602 207.631 19.5107C208.01 19.6424 208.371 19.8118 208.712 19.9999C209.053 20.1881 209.337 20.4138 209.603 20.6396L208.75 22.2012Z" fill="#336FE4"/>
<path d="M226 26.5285C226 27.5822 225.811 28.5605 225.45 29.4824C225.09 30.3855 224.559 31.1757 223.896 31.8531C223.232 32.5304 222.436 33.0572 221.488 33.4335C220.541 33.8098 219.517 33.9979 218.361 33.9979C217.204 33.9979 216.181 33.8098 215.233 33.4335C214.285 33.0572 213.489 32.5304 212.806 31.8531C212.143 31.1757 211.612 30.3855 211.252 29.4824C210.892 28.5793 210.702 27.601 210.702 26.5285C210.702 25.4749 210.892 24.4966 211.252 23.5747C211.612 22.6716 212.143 21.8814 212.806 21.204C213.47 20.5455 214.285 20.0187 215.233 19.6236C216.181 19.2473 217.223 19.0592 218.361 19.0592C219.498 19.0592 220.541 19.2473 221.488 19.6424C222.436 20.0187 223.232 20.5455 223.896 21.2229C224.559 21.8814 225.071 22.6716 225.45 23.5935C225.829 24.4966 226 25.4749 226 26.5285ZM222.512 26.5285C222.512 25.8136 222.417 25.1551 222.228 24.5718C222.038 23.9886 221.773 23.4994 221.413 23.1043C221.052 22.7092 220.635 22.3894 220.124 22.1824C219.612 21.9754 219.024 21.8625 218.38 21.8625C217.716 21.8625 217.128 21.9754 216.617 22.1824C216.105 22.3894 215.669 22.7092 215.309 23.1043C214.948 23.4994 214.683 23.9886 214.493 24.5718C214.304 25.1551 214.209 25.7948 214.209 26.5285C214.209 27.2623 214.304 27.902 214.493 28.4853C214.683 29.0685 214.948 29.5577 215.309 29.9528C215.669 30.3479 216.105 30.6677 216.617 30.8747C217.128 31.0817 217.716 31.1945 218.38 31.1945C219.024 31.1945 219.612 31.0817 220.124 30.8747C220.635 30.6677 221.071 30.3667 221.413 29.9528C221.754 29.5389 222.038 29.0685 222.228 28.4853C222.417 27.902 222.512 27.2623 222.512 26.5285ZM222.436 18.2878H220.067C219.953 18.2878 219.82 18.269 219.669 18.2313C219.536 18.1937 219.403 18.1561 219.308 18.0996L218.569 17.6481C218.531 17.6293 218.512 17.6105 218.474 17.5917C218.455 17.5728 218.417 17.554 218.38 17.5352C218.342 17.554 218.323 17.5728 218.285 17.5917C218.266 17.6105 218.228 17.6293 218.19 17.6481L217.451 18.0996C217.356 18.1561 217.242 18.1937 217.09 18.2313C216.958 18.269 216.825 18.2878 216.692 18.2878H214.323L216.787 16.0112H219.934L222.436 18.2878Z" fill="#336FE4"/>
<path d="M225.924 14.8823L223.915 16.331C223.858 16.3687 223.82 16.4063 223.763 16.4251C223.725 16.4439 223.668 16.4627 223.612 16.4816C223.555 16.5004 223.498 16.5004 223.441 16.5192C223.384 16.5192 223.308 16.5192 223.232 16.5192H221.583L222.796 15.2022C222.853 15.1457 222.91 15.0893 222.967 15.0517C223.024 15.014 223.081 14.9764 223.138 14.9576C223.195 14.9388 223.27 14.92 223.346 14.9011C223.422 14.8823 223.517 14.8823 223.612 14.8823H225.924Z" fill="#336FE4"/>
<defs>
<linearGradient id="paint0_linear_685_104" x1="34.8415" y1="21.3014" x2="34.8415" y2="18.0073" gradientUnits="userSpaceOnUse">
<stop stop-color="#5DCD83"/>
<stop offset="1" stop-color="#99EA6F"/>
</linearGradient>
<linearGradient id="paint1_linear_685_104" x1="26.5598" y1="45.8553" x2="26.5598" y2="41.8407" gradientUnits="userSpaceOnUse">
<stop stop-color="#FF7E82"/>
<stop offset="1" stop-color="#FF9EA8"/>
</linearGradient>
<linearGradient id="paint2_linear_685_104" x1="14.9812" y1="40.5588" x2="14.9812" y2="14.0395" gradientUnits="userSpaceOnUse">
<stop stop-color="#5DCD83"/>
<stop offset="1" stop-color="#99EA6F"/>
</linearGradient>
<linearGradient id="paint3_linear_685_104" x1="40.6736" y1="40.6366" x2="40.6736" y2="13.7944" gradientUnits="userSpaceOnUse">
<stop stop-color="#336FE4"/>
<stop offset="1" stop-color="#4DBAFF"/>
</linearGradient>
<linearGradient id="paint4_linear_685_104" x1="37.7368" y1="37.2219" x2="43.8396" y2="37.2219" gradientUnits="userSpaceOnUse">
<stop stop-color="#FFD54A"/>
<stop offset="1" stop-color="#FFEC5A"/>
</linearGradient>
</defs>
</svg>
