<svg width="24" height="24" viewBox="0 0 24 24" fill="none" xmlns="http://www.w3.org/2000/svg">
<g clip-path="url(#clip0_1508_7758)">
<path d="M8.8906 6.25668L6.7908 2.75701C6.51509 2.2975 5.928 2.13989 5.48041 2.43455C4.40176 3.14468 2.59142 4.52921 2.18485 6.04569C1.603 8.21591 3.64997 11.5744 3.72465 11.6959L3.7292 11.703C3.80744 11.8216 5.73926 14.7397 7.32438 16.3249C8.90953 17.91 11.8277 19.8419 11.9464 19.9203L11.9536 19.9248C12.0753 19.9996 15.4336 22.0462 17.6038 21.4646C19.1202 21.0583 20.5051 19.2486 21.2155 18.1702C21.5104 17.7226 21.3528 17.1353 20.8932 16.8595L17.3935 14.7597C16.9358 14.4851 16.343 14.6184 16.047 15.0625L15.0715 16.5257C14.7664 16.9834 14.151 17.1083 13.7 16.7935C12.6915 16.0895 10.9802 14.841 9.89432 13.7552C8.80861 12.6694 7.56024 10.9584 6.85622 9.9498C6.54133 9.4987 6.6664 8.88312 7.12426 8.57813L8.58749 7.60344C9.03187 7.30743 9.16531 6.71453 8.8906 6.25668Z" fill="white"/>
<path fill-rule="evenodd" clip-rule="evenodd" d="M5.06844 1.8078C5.90057 1.25997 6.95705 1.57531 7.43436 2.37081L9.53416 5.87049C10.0149 6.67172 9.78138 7.70929 9.00372 8.22731L7.54049 9.202C7.42263 9.28051 7.40437 9.42381 7.47165 9.52019C8.17604 10.5293 9.39118 12.1906 10.4251 13.2245C11.4591 14.2585 13.1207 15.4738 14.1297 16.1782C14.2261 16.2454 14.3693 16.2272 14.4479 16.1094L15.4234 14.6462C15.9415 13.8689 16.9788 13.6357 17.7798 14.1163L21.2796 16.2161C22.0752 16.6935 22.3905 17.7503 21.8423 18.5825C21.473 19.143 20.9193 19.9084 20.2483 20.5938C19.5903 21.2659 18.7501 21.9337 17.7984 22.1888C16.4584 22.5478 14.8733 22.0911 13.7335 21.6374C12.5502 21.1663 11.6387 20.611 11.5613 20.5635L11.5501 20.5566L11.5337 20.5459C11.4274 20.4758 8.44278 18.5032 6.79449 16.8549C5.14623 15.2066 3.17373 12.222 3.10371 12.1159L3.09753 12.1065L3.08605 12.0884C3.03858 12.0112 2.48334 11.0995 2.01219 9.91618C1.55839 8.77639 1.10161 7.19116 1.46087 5.85114C1.71606 4.89931 2.38413 4.05921 3.05653 3.40133C3.74219 2.73047 4.50776 2.17692 5.06844 1.8078ZM6.01654 3.03973C5.97358 3.02886 5.93287 3.03459 5.89326 3.06066C5.37529 3.40166 4.69637 3.89544 4.10555 4.4735C3.50148 5.06453 3.06109 5.67494 2.9097 6.23958C2.68712 7.06979 2.9629 8.24893 3.40579 9.36132C3.81763 10.3957 4.30436 11.205 4.35994 11.2961C4.492 11.4957 6.35331 14.2924 7.85516 15.7942C9.35708 17.2962 12.1538 19.1576 12.3535 19.2897C12.4448 19.3454 13.2541 19.832 14.2884 20.2437C15.4007 20.6866 16.5798 20.9624 17.4101 20.7399C17.9748 20.5886 18.5853 20.1483 19.1764 19.5445C19.7546 18.9538 20.2485 18.2751 20.5897 17.7573C20.6158 17.7176 20.6215 17.6769 20.6106 17.634C20.599 17.5881 20.5669 17.5378 20.5078 17.5023L17.0081 15.4025C16.8936 15.3338 16.7455 15.3672 16.6714 15.4782L15.6959 16.9414C15.1643 17.7389 14.0768 17.9705 13.2711 17.4081C12.2632 16.7045 10.5021 15.4228 9.36443 14.2852C8.22691 13.1476 6.94532 11.3868 6.24167 10.3788C5.67917 9.57294 5.91106 8.48508 6.70891 7.95362L8.17214 6.97892C8.28324 6.90492 8.3166 6.75669 8.24792 6.64223L6.14812 3.14256C6.11266 3.08346 6.06241 3.05134 6.01654 3.03973Z" fill="#5DCD83"/>
<path fill-rule="evenodd" clip-rule="evenodd" d="M12.2558 5.90571C12.3068 5.49466 12.6814 5.2028 13.0925 5.25384L13.0001 5.99813C13.0925 5.25384 13.0928 5.25388 13.0931 5.25391L13.0937 5.25399L13.0951 5.25417L13.0984 5.25459L13.1069 5.25573L13.1315 5.25927C13.1513 5.26223 13.1777 5.26646 13.2104 5.27225C13.2758 5.28382 13.3664 5.30168 13.479 5.32831C13.7043 5.38153 14.0183 5.46992 14.3961 5.61344C15.1522 5.90063 16.1644 6.40881 17.2302 7.29696C18.2971 8.18605 18.9196 9.04095 19.2784 9.69678C19.4572 10.0238 19.5692 10.2989 19.638 10.5011C19.6724 10.6021 19.6959 10.6848 19.7117 10.7465C19.7195 10.7774 19.7254 10.803 19.7298 10.823L19.7351 10.8489L19.737 10.8586L19.7377 10.8626L19.7381 10.8644L19.7382 10.8653C19.7383 10.8657 19.7384 10.8661 19.0001 10.9981L19.7384 10.8661C19.8113 11.2739 19.5398 11.6635 19.1321 11.7364C18.7273 11.8088 18.3404 11.5418 18.2634 11.139C18.2628 11.1363 18.2612 11.1289 18.2582 11.117C18.2518 11.0919 18.2393 11.0469 18.218 10.9844C18.1754 10.8594 18.0976 10.6638 17.9623 10.4166C17.6929 9.92395 17.1904 9.21634 16.2699 8.44929C15.3483 7.6813 14.4856 7.25198 13.8635 7.0157C13.5523 6.89749 13.3014 6.82765 13.134 6.78809C13.0504 6.76832 12.9877 6.75614 12.949 6.74928C12.9296 6.74585 12.9162 6.74376 12.9092 6.74271L12.9038 6.74192C12.4948 6.68901 12.2049 6.31547 12.2558 5.90571Z" fill="#5DCD83"/>
<path fill-rule="evenodd" clip-rule="evenodd" d="M12.2583 1.88762C12.3193 1.47793 12.7009 1.19529 13.1106 1.25634L13.0001 1.99815C13.1106 1.25634 13.111 1.25639 13.1113 1.25644L13.1121 1.25656L13.1138 1.25682L13.118 1.25747L13.1293 1.25928L13.1633 1.26514C13.1909 1.27011 13.2285 1.2773 13.2754 1.28727C13.3692 1.30719 13.5004 1.33821 13.6644 1.38474C13.9925 1.47778 14.452 1.63288 15.0058 1.88529C16.1146 2.3907 17.5967 3.2841 19.1554 4.84282C20.7141 6.40153 21.6076 7.88365 22.113 8.99249C22.3654 9.54627 22.5205 10.0057 22.6135 10.3338C22.66 10.4978 22.6911 10.6291 22.711 10.7229C22.7209 10.7698 22.7281 10.8073 22.7331 10.835L22.739 10.869L22.7408 10.8802L22.7414 10.8844L22.7417 10.8861L22.7418 10.8869C22.7419 10.8873 22.7419 10.8876 22.0001 10.9981L22.7419 10.8876C22.803 11.2973 22.5203 11.6789 22.1106 11.74C21.7021 11.8008 21.3215 11.5199 21.2588 11.1121C21.2588 11.1121 21.2588 11.1121 21.2588 11.1121C21.2588 11.112 21.2588 11.112 21.2588 11.112L21.2568 11.1005C21.2545 11.0879 21.2504 11.0658 21.2437 11.0346C21.2305 10.9721 21.2074 10.8735 21.1704 10.7431C21.0965 10.4823 20.9668 10.0944 20.748 9.61461C20.3112 8.65621 19.5171 7.32583 18.0948 5.90348C16.6724 4.48112 15.342 3.68703 14.3836 3.2502C13.9038 3.0315 13.516 2.9018 13.2552 2.82782C13.1247 2.79083 13.0261 2.76779 12.9637 2.75453C12.9325 2.7479 12.9103 2.74372 12.8978 2.74146M12.2583 1.88762C12.1974 2.29616 12.4783 2.67676 12.8861 2.73943L12.2583 1.88762Z" fill="#5DCD83"/>
</g>
<defs>
<clipPath id="clip0_1508_7758">
<rect width="24" height="24" fill="white"/>
</clipPath>
</defs>
</svg>
