<svg width="1920" height="1136" viewBox="0 0 1920 1136" fill="none" xmlns="http://www.w3.org/2000/svg">
<path d="M97.5763 1100.76C35.2616 1080.13 -85.8255 956.312 -138.58 896.984L-152 333.227L1896.08 284.472L1921.5 1072.5C1852.94 991.198 1713.15 1040.54 1667.34 1041.63C1631.65 1042.48 1489.8 1033.26 1462.5 1019C1429 1001.5 1382.31 986.793 1346.5 960C1324.55 943.582 1194.99 867.139 1177 855.5C1151.5 839 1014.39 814.835 945.888 825.288C877.385 835.742 777.847 863.404 726.304 892.276C674.761 921.148 625.994 954.66 519.136 1033.08C412.279 1111.5 277.95 1132.93 221.278 1125.46C164.607 1117.98 175.47 1126.55 97.5763 1100.76Z" fill="#E9F2FF"/>
<path d="M183.771 664.92C128.338 634.612 35.7913 500.516 -3.55253 437.257L85.8555 -71.6699L2039.49 271.543L1920.5 990.5C1870.13 904.516 1728.78 916.105 1685.09 908.429C1651.05 902.448 1541.35 879.893 1522.76 857.482C1504.18 835.07 1436.27 801.257 1407.11 770.423C1389.25 751.529 1261.26 676.416 1250.06 659.678C1238.85 642.939 1106.16 581.333 1039.22 577.779C972.277 574.224 872.746 580.263 818.57 596.457C764.395 612.652 712.015 633.538 596.336 683.787C480.658 734.036 349.219 727.903 296.76 710.481C244.3 693.059 253.063 702.805 183.771 664.92Z" fill="#CEE9FF"/>
<path d="M210.508 609.755C152.372 590.948 41.2794 483.206 -7 431.687V-48H1920V633.265C1857.35 562.738 1731.06 591.248 1687.96 591.248C1654.38 591.248 1545.63 588.246 1524.08 570.74C1502.53 553.234 1431.86 533.226 1398.78 509.716C1378.51 495.31 1243.42 447.192 1229.89 433.687C1216.36 420.181 1079.04 385.168 1014.39 392.671C949.734 400.174 855.514 421.683 806.399 445.192C757.285 468.701 710.676 496.211 608.437 560.737C506.198 625.262 379.402 640.768 326.278 633.265C273.154 625.762 283.178 633.265 210.508 609.755Z" fill="#AECAFF"/>
</svg>
